PathFileType	4	(X/Y/Z)	C:/Users/beibeiliu/ov580/test_trc/User2\sequence.34_training_dense_left.trc
DataRate	CameraRate	NumFrames	NumMarkers	Units	OrigDataRate	OrigDataStartFrame	OrigNumFrames
120	120	13	19	mm	120	25	144
Frame#	Time	ThumbCMC			ThumbMCP			ThumbIP			ThumbTip			IndexMCP			IndexPIP			IndexTip			MiddleMCP			MiddlePIP			MiddleTip			RingMCP			RingPIP			RingTip			PinkyMCP			PinkyPIP			PinkyTip			BackHand1			BackHand2			BackHand3	
		X0	Y0	Z0	X1	Y1	Z1	X2	Y2	Z2	X3	Y3	Z3	X4	Y4	Z4	X5	Y5	Z5	X6	Y6	Z6	X7	Y7	Z7	X8	Y8	Z8	X9	Y9	Z9	X10	Y10	Z10	X11	Y11	Z11	X12	Y12	Z12	X13	Y13	Z13	X14	Y14	Z14	X15	Y15	Z15	X16	Y16	Z16	X17	Y17	Z17	X18	Y18	Z18	
24	0.2	-171.137	21.1026	-43.3739	-169.255	34.7113	-75.2375	-164.813	34.9339	-105.828	-161.378	32.0664	-134.27	-171.511	4.18394	-127.204	-141.262	5.87603	-134.919	-136.121	12.7647	-98.6377	-161.894	-17.7848	-129.212	-126.356	-13.1194	-127.153	-133.548	-8.32873	-84.2125	-150.61	-39.1627	-125.935	-121.995	-27.9359	-121.638	-129.254	-24.2847	-86.7094	-146.208	-54.5887	-114.742	-117.64	-42.6925	-112.182	-126.386	-32.5043	-81.4821	-187.801	-43.3067	-69.5754	-187.975	-48.5118	-36.69	-193.649	-14.0017	-50.1325	
25	0.208333	-165.885	17.9978	-41.8453	-162.321	38.6356	-72.159	-157.588	38.7602	-109.959	-150.472	31.5699	-133.859	-167.969	2.63446	-129.006	-136.401	6.80941	-133.098	-133.745	13.1958	-98.0041	-159.298	-14.9078	-131.926	-123.745	-8.11928	-127.309	-130.543	-6.65892	-86.9835	-149.551	-37.045	-127.615	-118.755	-27.5651	-119.263	-130.624	-24.6424	-83.7613	-146.414	-51.1447	-115.234	-116.702	-39.3485	-110.629	-125.298	-34.1522	-79.8837	-185.361	-45.8112	-67.6971	-189.271	-42.3948	-37.6581	-191.695	-10.7443	-52.0169	
26	0.216667	-164.943	22.7939	-42.9112	-157.319	39.4378	-72.1938	-149.453	37.1128	-105.673	-140.676	26.2768	-127.832	-167.603	8.80999	-124.826	-136.168	5.1895	-134.936	-127.549	11.2881	-101.17	-156.912	-16.9037	-130.782	-124.152	-7.95078	-129.508	-123.736	-4.22548	-90.1149	-148.844	-31.765	-127.41	-118.627	-24.0421	-120.867	-128.639	-18.4931	-84.935	-145.771	-53.8848	-112.783	-116.927	-37.0003	-110.948	-120.227	-31.3975	-80.5192	-182.445	-44.6335	-71.5456	-187.579	-45.8944	-33.5877	-189.98	-7.81208	-52.4781	
27	0.225	-163.372	19.7543	-40.9232	-152.361	42.5039	-66.9259	-143.19	42.2374	-105.536	-132.99	31.1763	-128.506	-166.39	4.96357	-122.26	-133.686	9.35995	-134.477	-125.259	9.82101	-100.085	-156.559	-12.5732	-131.066	-121.28	-11.4463	-129.399	-123.861	-1.31614	-87.9408	-148.952	-35.4489	-125.57	-117.387	-25.9162	-120.231	-122.847	-20.8376	-87.2817	-145.341	-55.2096	-112.637	-117.644	-39.7875	-114.237	-119.685	-32.178	-81.9569	-181.785	-39.6292	-68.4387	-185.466	-44.9041	-33.8289	-189.222	-8.80957	-54.3113	
28	0.233333	-163.748	24.9135	-41.1837	-150.724	40.6329	-62.9692	-139.123	44.6114	-98.2802	-129.055	35.1346	-121.076	-165.871	7.84546	-124.231	-136.586	7.52987	-135.098	-125.807	11.7453	-96.7422	-160.074	-10.423	-127.483	-121.904	-7.59169	-130.071	-120.39	-5.81293	-92.7708	-148.583	-31.6423	-126.547	-118.934	-22.7691	-123.004	-122.549	-17.5664	-89.088	-148.152	-50.1728	-111.983	-115.872	-39.6496	-112.708	-118.642	-31.9997	-80.858	-183.62	-41.709	-71.6529	-188.066	-41.382	-32.4903	-191.093	-6.88058	-50.7968	
29	0.241667	-164.144	23.62	-36.9125	-155.465	40.112	-63.7372	-146.467	55.1514	-95.4833	-136.066	48.9053	-122.378	-168.75	7.02237	-121.575	-138.196	10.0768	-135.33	-127.733	16.8438	-99.0727	-160.607	-14.2986	-129.648	-124.649	-8.9891	-130.895	-123.6	-2.20632	-89.6037	-151.786	-31.1022	-125.515	-121.978	-24.4807	-124.407	-122.062	-20.8954	-89.2468	-149.582	-48.431	-111.366	-117.771	-38.0175	-113.839	-121.865	-30.3981	-82.2304	-184.515	-36.9813	-66.246	-187.079	-39.779	-34.5674	-191.674	-5.0775	-49.3612	
30	0.25	-168.445	19.1592	-40.8726	-165.726	41.5965	-65.7639	-159.311	50.4314	-94.8485	-153.925	51.8394	-123.708	-170.526	9.8004	-126.28	-141.989	7.5814	-135.126	-132.398	13.12	-96.1132	-163.585	-15.4751	-126.728	-126.115	-10.3817	-130.03	-124.818	-6.05281	-91.1013	-153.25	-32.7254	-127.332	-121.864	-26.6088	-123.105	-127.243	-16.5652	-89.0363	-149.086	-51.1211	-113.267	-120.068	-40.2158	-114.605	-123.79	-30.6965	-79.242	-186.601	-43.8056	-69.4915	-187.593	-43.8385	-33.1327	-193.639	-9.0798	-50.4536	
31	0.258333	-169.358	19.0152	-38.86	-169.335	39.8327	-66.5266	-168.414	45.9492	-96.9736	-166.183	52.8145	-124.713	-170.659	6.1839	-126.054	-141.766	11.1499	-134.239	-134.56	15.5151	-97.6403	-162.066	-12.9937	-130.341	-127.318	-7.71513	-128.261	-127.21	-1.74172	-88.648	-153.808	-35.6214	-124.532	-125.61	-25.9867	-125.743	-127.736	-18.4119	-88.6333	-149.885	-54.3152	-111.094	-117.985	-40.2997	-112.792	-122.522	-32.067	-83.2393	-187.147	-43.348	-68.1937	-186.896	-42.2851	-32.0934	-193.166	-5.43419	-51.0749	
32	0.266667	-168.287	19.1469	-40.8396	-168.574	36.3247	-67.0316	-168.759	44.596	-101.671	-166.052	41.9443	-127.54	-173.119	9.60468	-122.639	-140.771	9.60671	-133.04	-135.419	12.3274	-97.0571	-163.099	-14.8754	-127.392	-126.89	-9.38605	-129.664	-127.904	-3.07039	-89.4728	-154.601	-32.1796	-125.457	-123.965	-26.7284	-125.373	-126.869	-19.8392	-89.1164	-148.219	-54.1312	-113.13	-120.462	-36.8241	-112.869	-126.645	-31.7592	-80.0889	-186.978	-43.6678	-69.776	-186.52	-41.8728	-32.6991	-190.872	-11.039	-50.3856	
33	0.275	-168.05	22.3119	-40.2031	-167.019	37.125	-70.3557	-166.151	39.8544	-108.027	-161.212	36.2045	-129.22	-171.094	5.71679	-123.424	-140.654	6.78909	-133.904	-135.983	11.7664	-97.658	-161.244	-12.2069	-129.807	-126.937	-9.40305	-129.382	-126.761	-4.64595	-90.356	-152.289	-31.0312	-126.888	-123.923	-26.3055	-124.122	-128.948	-20.7779	-86.8701	-147.004	-52.799	-116.942	-120.451	-37.074	-111.78	-123.139	-33.6793	-79.994	-187.833	-39.4272	-70.3685	-188.544	-41.3978	-37.5466	-193.316	-9.28891	-52.277	
34	0.283333	-166.288	20.1735	-40.8318	-161.818	38.6538	-70.1347	-158.812	39.2555	-104.695	-154.537	30.666	-130.63	-171.873	7.41515	-123.441	-138.792	6.39964	-132.531	-133.146	9.68577	-100.616	-160.831	-12.0936	-131.553	-125.146	-10.3829	-127.511	-130.315	-4.95991	-87.5706	-152.952	-34.3585	-126.729	-122.199	-23.4779	-122.85	-129.337	-21.2003	-86.1046	-149.675	-54.2137	-112.398	-118.782	-37.754	-111.556	-126.286	-31.6024	-80.3499	-187.515	-39.4926	-70.4835	-188.031	-42.5456	-33.9005	-192.279	-10.1928	-52.8572	
35	0.291667	-163.95	21.6443	-39.9369	-159.918	36.3274	-72.9291	-153.644	36.2243	-104.571	-146.678	26.9447	-130.192	-170.465	7.58885	-125.898	-136.597	9.89832	-134.352	-130.772	11.0576	-102.293	-158.495	-16.9466	-132.007	-124.279	-9.64716	-127.954	-127.273	-4.32741	-89.0559	-150.674	-35.8101	-126.841	-119.639	-25.8426	-121.65	-127.111	-21.0286	-88.162	-146.061	-53.305	-117.273	-116.639	-38.4619	-110.487	-122.766	-35.8545	-80.7863	-187	-42.7975	-73.0208	-188.809	-44.6719	-36.4727	-189.59	-9.92342	-51.6352	
36	0.3	-164.493	21.6397	-40.2648	-158.413	35.6571	-71.6625	-150.291	36.6465	-103.588	-142.591	30.8342	-132.421	-167.071	2.72801	-125.25	-138.579	4.11393	-137.274	-128.1	7.60915	-101.981	-158.947	-16.0702	-130.138	-124.017	-9.54575	-131.384	-124.402	-9.61488	-90.137	-150.081	-36.5989	-125.002	-120.191	-28.0956	-124.76	-128.078	-20.6151	-86.0343	-143.767	-51.7448	-115.779	-116.693	-38.4059	-111.38	-122.008	-35.8403	-78.5558	-183.386	-45.9166	-69.749	-187.757	-44.7351	-37.7012	-188.801	-11.0613	-52.5421	
